<svg xmlns="http://www.w3.org/2000/svg" viewBox="0 0 1100 680" role="img" aria-labelledby="t d"><title id="t">Learning Library operations console</title><desc id="d">A stylized operations dashboard with purchases, ad passes, recovery, and launch controls.</desc><rect width="1100" height="680" rx="34" fill="#111827"/><rect x="36" y="36" width="1028" height="608" rx="24" fill="#f8fafc"/><rect x="36" y="36" width="1028" height="70" rx="24" fill="#0f172a"/><text x="72" y="80" font-family="Arial,sans-serif" font-size="24" font-weight="700" fill="#fff">Access Operations</text><g font-family="Arial,sans-serif"><g transform="translate(72 142)"><rect width="224" height="112" rx="17" fill="#dcfce7"/><text x="22" y="36" font-size="14" fill="#166534">ACTIVE PASSES</text><text x="22" y="78" font-size="36" font-weight="700" fill="#14532d">24</text></g><g transform="translate(316 142)"><rect width="224" height="112" rx="17" fill="#dbeafe"/><text x="22" y="36" font-size="14" fill="#1d4ed8">TEST PURCHASES</text><text x="22" y="78" font-size="36" font-weight="700" fill="#1e3a8a">12</text></g><g transform="translate(560 142)"><rect width="224" height="112" rx="17" fill="#f3e8ff"/><text x="22" y="36" font-size="14" fill="#7e22ce">AD PASSES</text><text x="22" y="78" font-size="36" font-weight="700" fill="#581c87">9</text></g><g transform="translate(804 142)"><rect width="224" height="112" rx="17" fill="#fef3c7"/><text x="22" y="36" font-size="14" fill="#92400e">RECOVERIES</text><text x="22" y="78" font-size="36" font-weight="700" fill="#78350f">7</text></g></g><rect x="72" y="286" width="630" height="302" rx="18" fill="#e2e8f0"/><text x="98" y="326" font-family="Arial,sans-serif" font-size="20" font-weight="700" fill="#0f172a">Daily access activity</text><polyline points="100,528 180,472 260,496 340,402 420,436 500,350 580,374 660,318" fill="none" stroke="#7c3aed" stroke-width="8" stroke-linecap="round" stroke-linejoin="round"/><g fill="#7c3aed"><circle cx="100" cy="528" r="8"/><circle cx="180" cy="472" r="8"/><circle cx="260" cy="496" r="8"/><circle cx="340" cy="402" r="8"/><circle cx="420" cy="436" r="8"/><circle cx="500" cy="350" r="8"/><circle cx="580" cy="374" r="8"/><circle cx="660" cy="318" r="8"/></g><rect x="730" y="286" width="298" height="302" rx="18" fill="#0f172a"/><text x="756" y="326" font-family="Arial,sans-serif" font-size="20" font-weight="700" fill="#fff">Launch safety</text><g font-family="Arial,sans-serif"><text x="756" y="372" font-size="14" fill="#94a3b8">PAYMENTS</text><text x="756" y="398" font-size="18" font-weight="700" fill="#60a5fa">PayMongo test</text><text x="756" y="444" font-size="14" fill="#94a3b8">REWARDED ADS</text><text x="756" y="470" font-size="18" font-weight="700" fill="#c084fc">Google test</text><text x="756" y="516" font-size="14" fill="#94a3b8">PRODUCTION APPROVAL</text><text x="756" y="542" font-size="18" font-weight="700" fill="#fbbf24">Locked · no</text></g></svg>